<svg width="684" height="483" fill="none" xmlns="http://www.w3.org/2000/svg"><g clip-path="url(#clip0)" stroke-width="2"><path d="M270 434.91l98.86-56.53M31.43 266.57L376 67.62l238.58 137.74L270 404.3 31.43 266.57zM141 360.44l129 74.47V404.3l-129-43.86zM31.43 266.57v30.61l88.13 50.88-88.13-81.49zm520.93 6.87l63.87-36.53-1.65-31.55-62.22 68.08zM391 365.69l137.52-78.63L391 365.69z" stroke="#231F20" stroke-linejoin="round"/><path d="M107.75 383.31c16.75-11.78 29.71 5.69 29.71 5.69s5.22-27.6 3.42-38.26c-1.8-10.66-7.56-13.6-14.72-10.13-10.61 5.13-18.41 42.7-18.41 42.7zm307.6-4.08s-21.9-.62-26.78 22.89c0 0-21.45-18.85-21.65-30.63-.12-8 5-12 15.4-9.1 10.4 2.9 33 16.84 33 16.84h.03z" stroke="#231F20" stroke-linejoin="round"/><path d="M129 381.8s-4.88 16.89-4.87 53.11M401 398.87a21.2 21.2 0 01-12.4 3.25c4.88-23.52 26.78-22.89 26.78-22.89a46.126 46.126 0 01-5.59 11.22l-8.79 8.42zM111 437s-1.46-4.14 6.5-57.63L111 437z" stroke="#231F20" stroke-linejoin="round"/><path d="M516.85 135.65s17.23-3.53 53.35-.63M136.79 452.94c-.9-.32-1.84-.71-2.85-1.12 0 0 .9 4.28 2.23 8.95a48.692 48.692 0 003.48 9.35c3 5.48-3.94 6.71-5.72 2.79-.38-.81-1-2.26-1.68-4-2.69-6.59-6.28-13.34-6.28-13.34s.73 10.76 1.58 18c.18 1.49.32 2.63.42 3.27.6 3.68-5.94 5.67-6.63-.06-.69-5.73-2.93-17.9-2.93-17.9S114.88 474 114.62 478c-.24 3.66-6.89 4.69-5.94-.59.95-5.28 1-15.27 2.33-21.31-.54.56-4.94 6.74-7.14 10.26-2.2 3.52-6.17 1.12-4.26-3.17 1.91-4.29 4.64-10.32 5.27-15.66v-.15c1.32-11.38 14.76-17.17 23.62-9.91a23.414 23.414 0 012.89 2.83c4.13 3.78 11.1 9.53 14.86 9.54 5.34 0 6.8 9.17-9.46 3.11v-.01zm383.26-338.33s-31.18 3.92-41.52 12.2c-1.09.87 33.43 18.82 33.43 18.82 6.48-.42 11.4-.95 11.4-.95s-16.38-14.3-3.3-30.07c0 0 1.83.86 2.48 8.89l-2.49-8.89zm52.8 8.03s-3.55-2.36-57.5 1.32l57.5-1.32z" stroke="#231F20" stroke-linejoin="round"/><path d="M587.15 149.1c-.25-.93-.56-1.89-.89-2.93 0 0 4.2 1.24 8.74 2.93a48.206 48.206 0 019 4.21c5.22 3.45 7-3.39 3.24-5.48-.78-.44-2.17-1.15-3.85-2-6.35-3.21-12.8-7.32-12.8-7.32s10.67 1.59 17.8 3c1.47.3 2.6.53 3.22.68 3.62.89 6.13-5.47.47-6.62-5.66-1.15-17.61-4.35-17.61-4.35s15.39-2.31 19.35-2.25c3.67.06 5.22-6.49-.12-6-5.34.49-15.3-.23-21.43.63.6-.49 7.11-4.39 10.79-6.3 3.68-1.91 1.61-6.06-2.83-4.5-4.44 1.56-10.65 3.81-16 4h-.15c-11.45.41-18.29 13.35-11.76 22.76a23.259 23.259 0 002.59 3.1c3.44 4.42 8.62 11.82 8.33 15.57-.38 5.37 8.66 7.56 3.91-9.13v0zm-110.36 279s-47.19-23.25-76.69-44.16l76.69 44.16zm-85.25-34.5s65.58 36.72 79.07 44.51l-79.07-44.51zm132.53 20.01c1.45-11.88-6.08-19.84-15.76-12.8-.39.28-.77.59-1.16.93-10.74 9.34-15.15 55.26-8.65 56.12 4.25.6 21.43-4 23.18-18.58 1.09-9.05 1.15-15.58 2.39-25.69v.02z" stroke="#231F20" stroke-linejoin="round"/><path d="M517.44 398.33s-23.14-2.48-29 21.14c-5.86 23.62-11.28 19.32-17.39 14.22l-1.42 6.46s18.71 30.41 44.88 11.67" stroke="#231F20" stroke-linejoin="round"/><path d="M528.54 287.06c-1.92-3.29-3.2-6.54-3.24-9.38-.12-8 5-12 15.4-9.1a71.576 71.576 0 0111.66 4.85c10.24 5.09 21.38 12 21.38 12s-21.9-.62-26.78 22.89c0 0-12.36-10.86-18.41-21.25M486 428.08s-3 1.25-5-.55-6 2.88-9.83 6.15l14.83-5.6zm31.44-29.75s-4.45.49-7.86 6c-5.68 9.15-11.5 23.93-6.8 53.55l14.66-59.55z" stroke="#231F20" stroke-linejoin="round"/><path d="M559.35 305.06a21.2 21.2 0 01-12.4 3.25c4.88-23.52 26.78-22.89 26.78-22.89a46.126 46.126 0 01-5.59 11.22l-8.79 8.42zm75.79 29.21S588 311 558.48 290.11l76.66 44.16zm-85.22-34.5s65.58 36.72 79.08 44.51l-79.08-44.51zm132.54 20.01c1.45-11.88-6.08-19.84-15.76-12.8-.39.28-.77.59-1.16.93-10.74 9.37-15.12 55.24-8.66 56.15 4.25.6 21.43-4 23.18-18.58 1.1-9.05 1.16-15.59 2.4-25.7z" stroke="#231F20" stroke-linejoin="round"/><path d="M675.82 304.52s-23.14-2.48-29 21.14c-5.86 23.62-11.24 19.34-17.35 14.22l-1.42 6.46s18.71 30.41 44.88 11.67" stroke="#231F20" stroke-linejoin="round"/><path d="M675.82 304.52s-4.45.49-7.86 6c-5.68 9.15-11.5 23.93-6.8 53.55m-16.82-29.8s-3 1.25-5-.55-6 2.88-9.83 6.15l14.83-5.6zM76.09 273.61a8.83 8.83 0 008.83-8.83 8.83 8.83 0 00-8.83-8.83 8.83 8.83 0 00-8.83 8.83 8.83 8.83 0 008.83 8.83zm25.77-14.73a8.83 8.83 0 008.83-8.83 8.83 8.83 0 00-8.83-8.83 8.83 8.83 0 00-8.83 8.83 8.83 8.83 0 008.83 8.83zm24.69-14.09a8.83 8.83 0 008.83-8.83 8.83 8.83 0 00-8.83-8.83 8.83 8.83 0 00-8.83 8.83 8.83 8.83 0 008.83 8.83zm240.91-142.91a8.83 8.83 0 008.83-8.83 8.83 8.83 0 00-8.83-8.83 8.83 8.83 0 00-8.83 8.83 8.83 8.83 0 008.83 8.83zM134.45 218.35l15.47 8.78L355 109.74 337.69 99.4 134.45 218.35zm46.36 62.2l75.39 1.28-75.39-1.28zm36.58-21.12L217 304l.39-44.57zm145.02-89.51l75.39 1.29-75.39-1.29zM399 148.8l-.37 44.6.37-44.6zm-89.77 155.72l129.23-77.39 23.32 12.63s17.93 8.66-6.23 26.07c-17.69 12.75-30.56 8.05-37.53 3.84-2.54-1.54-24.79-15.45-24.79-15.45l-84 50.3zm128.37-51.89l-20-13 20 13zM137.46 389s-2.8 2.77-10.5 2.64l10.5-2.64zm385.89-244.36s1.5-3.59.85-10l-.85 10zm-415.46 238s-.58 3 8.15 6.34l-8.15-6.34zm150.51 24v11.65l-33-18.91v-11.85l33 19.11z" stroke="#231F20" stroke-linejoin="round"/><path d="M146 133.17l-8.1 8.1m134.48-64.61l-5.48-5.48 5.48 5.48zm-14.9-14.9l5.36 5.36-5.36-5.36zm0 14.9l5.52-5.48-5.52 5.48zm14.94-14.9L267.13 67l5.29-5.24zM15.25 100.32L9.9 95l5.35 5.32zM.71 85.78L5.94 91 .71 85.78zm0 14.54L6.06 95l-5.35 5.32zm14.54-14.51l-5.12 5.09 5.12-5.09zm189.64-62.1l-8.46-8.46 8.46 8.46zm-23-23L190.17 9 181.89.71zm0 23.01l8.45-8.46-8.45 8.46zm23-23.01l-8.11 8.1 8.11-8.1zM464.3 42l-8.46-8.46L464.3 42zm-23-23l8.28 8.28L441.3 19zm0 23l8.46-8.46L441.3 42zm23-23l-8.1 8.1 8.1-8.1zM146 156.17l-8.46-8.46 8.46 8.46zm-23-23l8.28 8.28-8.28-8.28zm0 23l8.46-8.46-8.46 8.46z" stroke="#1A1A1A" stroke-miterlimit="10"/></g><defs><clipPath id="clip0"><path fill="#fff" d="M0 0h683.63v482.05H0z"/></clipPath></defs></svg>